<mxfile host="app.diagrams.net" modified="2022-07-19T09:31:33.377Z" agent="5.0 (Windows NT 10.0; Win64; x64) AppleWebKit/537.36 (KHTML, like Gecko) Chrome/103.0.5060.114 Safari/537.36 Edg/103.0.1264.62" etag="n69HWgdyWAcPIDm6qhqw" version="20.1.1" type="github">
  <diagram id="91KygMYaghWH-9epu7pf" name="Page-1">
    <mxGraphModel dx="1422" dy="804" grid="0" gridSize="5" guides="1" tooltips="1" connect="1" arrows="1" fold="1" page="1" pageScale="1" pageWidth="300000" pageHeight="200000" math="0" shadow="0">
      <root>
        <mxCell id="0" />
        <mxCell id="1" parent="0" />
        <mxCell id="HaO95cUpOgZnxHEmuGRc-1" value="事务管理器" style="rounded=1;whiteSpace=wrap;html=1;" vertex="1" parent="1">
          <mxGeometry x="91" y="64" width="77" height="190" as="geometry" />
        </mxCell>
        <mxCell id="HaO95cUpOgZnxHEmuGRc-3" value="事务管理器" style="rounded=1;whiteSpace=wrap;html=1;" vertex="1" parent="1">
          <mxGeometry x="91" y="311" width="77" height="190" as="geometry" />
        </mxCell>
        <mxCell id="HaO95cUpOgZnxHEmuGRc-4" value="本地资源管理器" style="rounded=1;whiteSpace=wrap;html=1;" vertex="1" parent="1">
          <mxGeometry x="360" y="79" width="157" height="56" as="geometry" />
        </mxCell>
        <mxCell id="HaO95cUpOgZnxHEmuGRc-5" value="本地资源管理器" style="rounded=1;whiteSpace=wrap;html=1;" vertex="1" parent="1">
          <mxGeometry x="360" y="195" width="157" height="56" as="geometry" />
        </mxCell>
        <mxCell id="HaO95cUpOgZnxHEmuGRc-6" value="本地资源管理器" style="rounded=1;whiteSpace=wrap;html=1;" vertex="1" parent="1">
          <mxGeometry x="360" y="311" width="157" height="56" as="geometry" />
        </mxCell>
        <mxCell id="HaO95cUpOgZnxHEmuGRc-7" value="本地资源管理器" style="rounded=1;whiteSpace=wrap;html=1;" vertex="1" parent="1">
          <mxGeometry x="360" y="436" width="157" height="56" as="geometry" />
        </mxCell>
        <mxCell id="HaO95cUpOgZnxHEmuGRc-8" value="第一阶段" style="text;html=1;strokeColor=none;fillColor=none;align=center;verticalAlign=middle;whiteSpace=wrap;rounded=0;fontSize=16;fontStyle=1" vertex="1" parent="1">
          <mxGeometry x="542" y="77" width="24" height="177" as="geometry" />
        </mxCell>
        <mxCell id="HaO95cUpOgZnxHEmuGRc-9" value="第二阶段" style="text;html=1;strokeColor=none;fillColor=none;align=center;verticalAlign=middle;whiteSpace=wrap;rounded=0;fontSize=16;fontStyle=1" vertex="1" parent="1">
          <mxGeometry x="536" y="307" width="24" height="177" as="geometry" />
        </mxCell>
        <mxCell id="HaO95cUpOgZnxHEmuGRc-10" value="" style="endArrow=classic;html=1;rounded=0;fontSize=16;entryX=0;entryY=0.25;entryDx=0;entryDy=0;" edge="1" parent="1" target="HaO95cUpOgZnxHEmuGRc-4">
          <mxGeometry width="50" height="50" relative="1" as="geometry">
            <mxPoint x="168" y="93" as="sourcePoint" />
            <mxPoint x="354" y="94" as="targetPoint" />
          </mxGeometry>
        </mxCell>
        <mxCell id="HaO95cUpOgZnxHEmuGRc-18" value="预备" style="edgeLabel;html=1;align=center;verticalAlign=middle;resizable=0;points=[];fontSize=16;" vertex="1" connectable="0" parent="HaO95cUpOgZnxHEmuGRc-10">
          <mxGeometry x="0.1146" y="-1" relative="1" as="geometry">
            <mxPoint as="offset" />
          </mxGeometry>
        </mxCell>
        <mxCell id="HaO95cUpOgZnxHEmuGRc-11" value="" style="endArrow=classic;html=1;rounded=0;fontSize=16;entryX=0;entryY=0.25;entryDx=0;entryDy=0;" edge="1" parent="1">
          <mxGeometry width="50" height="50" relative="1" as="geometry">
            <mxPoint x="170" y="325" as="sourcePoint" />
            <mxPoint x="362" y="325" as="targetPoint" />
          </mxGeometry>
        </mxCell>
        <mxCell id="HaO95cUpOgZnxHEmuGRc-19" value="提交" style="edgeLabel;html=1;align=center;verticalAlign=middle;resizable=0;points=[];fontSize=16;" vertex="1" connectable="0" parent="HaO95cUpOgZnxHEmuGRc-11">
          <mxGeometry x="-0.1562" relative="1" as="geometry">
            <mxPoint x="8" y="-3" as="offset" />
          </mxGeometry>
        </mxCell>
        <mxCell id="HaO95cUpOgZnxHEmuGRc-12" value="预备" style="endArrow=classic;html=1;rounded=0;fontSize=16;entryX=0;entryY=0.25;entryDx=0;entryDy=0;" edge="1" parent="1">
          <mxGeometry width="50" height="50" relative="1" as="geometry">
            <mxPoint x="168" y="211" as="sourcePoint" />
            <mxPoint x="360" y="211" as="targetPoint" />
          </mxGeometry>
        </mxCell>
        <mxCell id="HaO95cUpOgZnxHEmuGRc-13" value="提交" style="endArrow=classic;html=1;rounded=0;fontSize=16;entryX=0;entryY=0.25;entryDx=0;entryDy=0;" edge="1" parent="1">
          <mxGeometry width="50" height="50" relative="1" as="geometry">
            <mxPoint x="168" y="448" as="sourcePoint" />
            <mxPoint x="360" y="448" as="targetPoint" />
          </mxGeometry>
        </mxCell>
        <mxCell id="HaO95cUpOgZnxHEmuGRc-14" value="就绪" style="endArrow=classic;html=1;rounded=0;fontSize=16;exitX=0;exitY=0.75;exitDx=0;exitDy=0;entryX=1;entryY=0.311;entryDx=0;entryDy=0;entryPerimeter=0;" edge="1" parent="1" source="HaO95cUpOgZnxHEmuGRc-4" target="HaO95cUpOgZnxHEmuGRc-1">
          <mxGeometry width="50" height="50" relative="1" as="geometry">
            <mxPoint x="170" y="121" as="sourcePoint" />
            <mxPoint x="173" y="121" as="targetPoint" />
          </mxGeometry>
        </mxCell>
        <mxCell id="HaO95cUpOgZnxHEmuGRc-15" value="就绪" style="endArrow=classic;html=1;rounded=0;fontSize=16;exitX=0;exitY=0.75;exitDx=0;exitDy=0;entryX=1;entryY=0.311;entryDx=0;entryDy=0;entryPerimeter=0;" edge="1" parent="1">
          <mxGeometry width="50" height="50" relative="1" as="geometry">
            <mxPoint x="360" y="242" as="sourcePoint" />
            <mxPoint x="168" y="244.09000000000003" as="targetPoint" />
          </mxGeometry>
        </mxCell>
        <mxCell id="HaO95cUpOgZnxHEmuGRc-16" value="成功" style="endArrow=classic;html=1;rounded=0;fontSize=16;exitX=0;exitY=0.75;exitDx=0;exitDy=0;entryX=1;entryY=0.311;entryDx=0;entryDy=0;entryPerimeter=0;" edge="1" parent="1">
          <mxGeometry width="50" height="50" relative="1" as="geometry">
            <mxPoint x="360" y="359" as="sourcePoint" />
            <mxPoint x="168" y="361.09000000000003" as="targetPoint" />
          </mxGeometry>
        </mxCell>
        <mxCell id="HaO95cUpOgZnxHEmuGRc-17" value="成功" style="endArrow=classic;html=1;rounded=0;fontSize=16;exitX=0;exitY=0.75;exitDx=0;exitDy=0;entryX=1;entryY=0.311;entryDx=0;entryDy=0;entryPerimeter=0;" edge="1" parent="1">
          <mxGeometry width="50" height="50" relative="1" as="geometry">
            <mxPoint x="360" y="478" as="sourcePoint" />
            <mxPoint x="168" y="480.09000000000003" as="targetPoint" />
          </mxGeometry>
        </mxCell>
      </root>
    </mxGraphModel>
  </diagram>
</mxfile>
